<svg id="SvgjsSvg1000" xmlns="http://www.w3.org/2000/svg" version="1.1" xmlns:xlink="http://www.w3.org/1999/xlink" xmlns:svgjs="http://svgjs.com/svgjs" width="313" height="52"><defs id="SvgjsDefs1001"></defs><path id="SvgjsPath1007" d="M464 178L464 164L489 164L489 178Z " fill="#333333" fill-opacity="1" transform="matrix(1,0,0,1,-225,-164)"></path><path id="SvgjsPath1008" d="M353 216L353 164L367 164L367 216Z " fill="#333333" fill-opacity="1" transform="matrix(1,0,0,1,-225,-164)"></path><path id="SvgjsPath1009" d="M379 216L379 164L393 164L393 216Z " fill="#333333" fill-opacity="1" transform="matrix(1,0,0,1,-225,-164)"></path><path id="SvgjsPath1010" d="M464 216L464 201L489 201L489 216Z " fill="#333333" fill-opacity="1" transform="matrix(1,0,0,1,-225,-164)"></path><path id="SvgjsPath1011" d="M489 164L489 178L471 215L464 215L464 201L482 164Z " fill="#333333" fill-opacity="1" transform="matrix(1,0,0,1,-225,-164)"></path><path id="SvgjsPath1012" d="M345 178L345 164L353 164L353 178Z " fill="#d5356e" fill-opacity="1" transform="matrix(1,0,0,1,-225,-164)"></path><path id="SvgjsPath1013" d="M367 178L367 164L375 164L375 178Z " fill="#5393d3" fill-opacity="1" transform="matrix(1,0,0,1,-225,-164)"></path><path id="SvgjsPath1014" d="M538 164L493 215.91L537.72 216Z " fill="#799dc2" fill-opacity="1" transform="matrix(1,0,0,1,-225,-164)"></path><path id="SvgjsPath1015" d="M481.75 164L489 164.03L489 178L475 177.99Z " fill="#d5356e" fill-opacity="1" transform="matrix(1,0,0,1,-225,-164)"></path><path id="SvgjsPath1016" d="M478 201L464 201.01L464 216L471.33 216Z " fill="#d5356e" fill-opacity="1" transform="matrix(1,0,0,1,-225,-164)"></path><path id="SvgjsPath1017" d="M446 216L446 164L460 164L460 216Z " fill="#333333" fill-opacity="1" transform="matrix(1,0,0,1,-225,-164)"></path><path id="SvgjsPath1018" d="M273 216L273 164L287 164L287 216Z " fill="#333333" fill-opacity="1" transform="matrix(1,0,0,1,-225,-164)"></path><path id="SvgjsPath1019" d="M289 198C298.39 198 306 190.39 306 181C306 171.61 298.39 164 289 164C279.61 164 273 171.61 273 181C273 190.39 279.61 198 289 198Z " fill="#333333" fill-opacity="1" transform="matrix(1,0,0,1,-225,-164)"></path><path id="SvgjsPath1020" d="M287 164C279.44 165.34 273.7 171.66 273 179.43L273 182.53C273.68 190.31 279.43 196.66 287 198Z " fill="#b3c717" fill-opacity="1" transform="matrix(1,0,0,1,-225,-164)"></path><path id="SvgjsPath1021" d="M309 216L309 164L323 164L323 216Z " fill="#333333" fill-opacity="1" transform="matrix(1,0,0,1,-225,-164)"></path><path id="SvgjsPath1022" d="M325 198C334.39 198 342 190.39 342 181C342 171.61 334.39 164 325 164C315.61 164 309 171.61 309 181C309 190.39 315.61 198 325 198Z " fill="#333333" fill-opacity="1" transform="matrix(1,0,0,1,-225,-164)"></path><path id="SvgjsPath1023" d="M309 179C309 179.43 309 182.53 309 183C309.68 190.31 315.43 196.66 323 198L323 164C315.44 165.34 309.7 171.66 309 179Z " fill="#b3c717" fill-opacity="1" transform="matrix(1,0,0,1,-225,-164)"></path><path id="SvgjsPath1024" d="M442 164L397 216L442 216Z " fill="#799dc2" fill-opacity="1" transform="matrix(1,0,0,1,-225,-164)"></path><path id="SvgjsPath1025" d="M225 216L248 164L270 216Z " fill="#333333" fill-opacity="1" transform="matrix(1,0,0,1,-225,-164)"></path><path id="SvgjsPath1026" d="M397 164L442 216L397 216Z " fill="#333333" fill-opacity="1" transform="matrix(1,0,0,1,-225,-164)"></path><path id="SvgjsPath1027" d="M493 164L538 216L493 216Z " fill="#333333" fill-opacity="1" transform="matrix(1,0,0,1,-225,-164)"></path></svg>